<svg 
 xmlns="http://www.w3.org/2000/svg"
 xmlns:xlink="http://www.w3.org/1999/xlink"
 width="465px" height="458px">
<path fill-rule="evenodd"  fill="#FFFFFF"
 d="M463.349,248.791 L417.935,259.080 L405.007,303.365 L437.691,336.433 C429.360,352.347 419.166,367.144 407.441,380.643 L364.697,362.339 L328.179,390.510 L335.105,436.507 C319.221,444.350 302.308,450.448 284.596,454.563 L260.836,414.522 L214.734,415.796 L193.252,457.131 C175.360,454.075 158.152,448.880 141.835,441.981 L146.148,395.627 L108.101,369.612 L66.436,390.341 C53.964,377.544 42.985,363.205 33.686,347.783 L64.451,312.855 L49.047,269.444 L3.165,261.719 C1.990,253.345 1.213,244.855 0.891,236.196 C0.600,226.709 0.948,217.371 1.764,208.235 L47.146,198.019 L60.236,153.865 L27.741,120.666 C36.141,104.736 46.362,89.962 58.083,76.557 L100.782,94.978 L137.426,66.966 L130.633,20.942 C146.527,13.134 163.467,7.125 181.191,3.089 L204.873,43.187 L250.980,42.106 L272.584,0.869 C289.941,3.877 306.663,8.885 322.473,15.549 L318.352,61.891 L356.475,87.797 L398.057,66.937 C410.523,79.697 421.553,93.881 430.821,109.293 L400.262,144.304 L415.807,187.665 L461.672,195.259 C462.967,203.870 463.819,212.666 464.070,221.565 C464.387,230.720 464.081,239.813 463.349,248.791 Z"/>
</svg>